PathFileType	4	(X/Y/Z)	D:/Ayumi_testdata/Ayumi_25_09_2024/25-09-2024/conventional_dl_80kg01/conventional_dl_80kg01.trc	
DataRate	CameraRate	NumFrames	NumMarkers	Units	OrigDataRate	OrigDataStartFrame	OrigNumFrames	
200.00	200.00	7	55	mm	200.00	1800	2620	
Frame#	Time	RSACR			LSACR			USACR			LBAR			RBAR			RHEE			RMT1			RMT5			RMT2			LHEE			LMT1			LMT5			LMT2			LMMAL			LLMAL			LTIB4			LTIB3			LTIB2			LTIB1			RMMAL			RLMAL			RTIB1			RTIB3			RTIB2			RTHI			RTHI4			RTHI3			RTHI2			LTHI1			LTHI4			LTHI3			LTHI2			FHD			LBHD			RBHD			C7			T10			CLAV			LSHO			RSHO			LRAD			LUL			LRFIN			RRAD			RUL			RUFIN			LMUPA			LDUPA			LUUPA			RMUPA			RUUPA			RDUPA			*52			*53			*54			
		X1	Y1	Z1	X2	Y2	Z2	X3	Y3	Z3	X4	Y4	Z4	X5	Y5	Z5	X6	Y6	Z6	X7	Y7	Z7	X8	Y8	Z8	X9	Y9	Z9	X10	Y10	Z10	X11	Y11	Z11	X12	Y12	Z12	X13	Y13	Z13	X14	Y14	Z14	X15	Y15	Z15	X16	Y16	Z16	X17	Y17	Z17	X18	Y18	Z18	X19	Y19	Z19	X20	Y20	Z20	X21	Y21	Z21	X22	Y22	Z22	X23	Y23	Z23	X24	Y24	Z24	X25	Y25	Z25	X26	Y26	Z26	X27	Y27	Z27	X28	Y28	Z28	X29	Y29	Z29	X30	Y30	Z30	X31	Y31	Z31	X32	Y32	Z32	X33	Y33	Z33	X34	Y34	Z34	X35	Y35	Z35	X36	Y36	Z36	X37	Y37	Z37	X38	Y38	Z38	X39	Y39	Z39	X40	Y40	Z40	X41	Y41	Z41	X42	Y42	Z42	X43	Y43	Z43	X44	Y44	Z44	X45	Y45	Z45	X46	Y46	Z46	X47	Y47	Z47	X48	Y48	Z48	X49	Y49	Z49	X50	Y50	Z50	X51	Y51	Z51	X52	Y52	Z52	X53	Y53	Z53	X54	Y54	Z54	X55	Y55	Z55	

1638	8.185	348.58063	967.12390	830.18958	351.22916	909.12152	831.31146	343.10626	937.78424	847.44049	196.96355	-192.91727	605.12701	116.92366	2026.63257	623.14038	271.62637	1358.12024	28.45535	119.48911	1486.23706	44.11621	190.14702	1527.05469	30.21287	151.27791	1511.88794	41.97959	305.86017	492.64725	38.26543	145.90488	381.37991	49.76293	212.99344	336.18750	30.72212	173.12570	352.96674	46.09047	245.06285	503.11969	64.33511	292.39560	438.88901	73.88903	312.02072	512.26929	199.47696	298.79669	524.15973	262.72211	335.94370	554.31329	244.32915	330.97241	567.17291	287.26743	221.14476	1357.86877	57.31910	268.39093	1411.79504	70.43211	277.86603	1319.09497	304.49847	284.98474	1338.75269	241.96271	317.00357	1296.49597	280.94333	284.38239	1109.60620	723.78564	285.28140	1168.17493	582.18201	242.76692	1189.63477	599.31274	274.25467	1155.54785	646.15521	298.00690	766.61670	720.36578	257.73645	673.22473	603.17120	299.19077	702.70123	593.87592	277.41223	706.61530	656.08435	206.57779	839.87512	1486.59399	319.12381	850.60498	1481.38074	330.47748	974.68457	1470.30469	347.97452	918.94556	1266.36780	338.34918	932.05377	892.07129	210.06326	925.39447	1230.96240	304.70352	745.59149	1225.30798	268.04382	1084.78027	1231.88525	151.30457	659.84082	707.01660	149.95250	700.92828	707.46350	123.62688	716.20520	623.95721	138.04492	1144.45313	707.00702	133.92197	1192.76770	705.50183	106.31869	1130.21069	628.32550	230.14320	681.69214	987.31677	209.71474	717.65967	1014.56244	239.32928	697.48175	1064.45630	198.97928	1153.04004	992.93036	205.62134	1137.74805	1053.13257	179.05031	1108.22021	984.38196									 
1639	8.190	348.64236	967.09845	830.17462	351.28006	909.10492	831.29303	343.17316	937.74988	847.42786	197.10968	-192.89738	605.29895	117.06624	2026.68811	623.03662	271.63434	1358.11560	28.44533	119.48373	1486.24133	44.11578	190.13910	1527.06238	30.20878	151.28368	1511.89380	41.97670	305.86295	492.64673	38.26074	145.90962	381.37048	49.76190	212.99113	336.17957	30.71380	173.12631	352.94928	46.09089	245.04300	503.12863	64.34048	292.40741	438.88251	73.88569	312.00064	512.30017	199.46892	298.81335	524.17340	262.70731	335.93884	554.33734	244.34122	330.98535	567.19159	287.24857	221.14247	1357.88037	57.31653	268.40213	1411.79248	70.42657	277.93967	1319.07141	304.49655	285.01691	1338.72229	241.94330	317.03860	1296.44397	280.90912	284.46964	1109.61230	723.76447	285.36935	1168.14368	582.16034	242.84035	1189.63647	599.26917	274.34528	1155.52905	646.10345	298.08527	766.59741	720.38910	257.77283	673.18024	603.20789	299.23270	702.63306	593.89270	277.44992	706.77161	656.03949	206.58745	840.05475	1486.59314	319.13251	850.75220	1481.42554	330.46796	974.83936	1470.33972	348.03619	919.04169	1266.38879	338.43219	932.03040	892.07513	210.11853	925.50189	1230.97693	304.76212	745.69391	1225.36133	268.13983	1084.86340	1231.87280	151.38589	659.88330	707.04688	150.01076	700.98047	707.51672	123.72775	716.25214	623.99817	138.13029	1144.50171	706.99878	134.02504	1192.83325	705.48840	106.41504	1130.25415	628.32007	230.18216	681.75800	987.35120	209.78911	717.72150	1014.61072	239.37245	697.54993	1064.50854	199.06035	1153.06641	992.94092	205.70752	1137.78760	1053.11243	179.13695	1108.25781	984.36871									 
1640	8.195	348.70224	967.09064	830.16412	351.33295	909.08960	831.27960	343.24963	937.74548	847.40790	197.24553	-192.84177	605.45099	117.21188	2026.76917	622.95862	271.63672	1358.13513	28.44008	119.47955	1486.23584	44.12095	190.14049	1527.06335	30.22185	151.28899	1511.90259	41.98059	305.85474	492.64697	38.26439	145.89818	381.36542	49.76090	212.99388	336.18085	30.71513	173.12126	352.95212	46.08838	245.04153	503.12653	64.34065	292.41309	438.86981	73.88454	312.01822	512.35187	199.44485	298.82831	524.20251	262.69986	335.97742	554.32709	244.34468	330.99942	567.22144	287.22421	221.11377	1357.87195	57.31530	268.40646	1411.80310	70.42107	278.01230	1319.05383	304.47882	285.09039	1338.69324	241.90648	317.08267	1296.40210	280.87793	284.40320	1109.26233	723.51514	285.44711	1168.11560	582.13898	242.93788	1189.63647	599.26263	274.40268	1155.56885	646.11176	298.15381	766.58490	720.40582	257.81564	673.17487	603.22949	299.29312	702.61212	593.91180	277.51532	706.74988	656.06110	206.57188	840.19568	1486.58777	319.11407	850.90271	1481.47327	330.45163	975.00159	1470.37231	348.07861	919.15479	1266.39893	338.50458	932.01215	892.06622	210.18047	925.60541	1230.97852	304.82886	745.79675	1225.41553	268.21725	1084.96826	1231.86646	151.47641	659.92511	707.09729	150.08574	701.02209	707.55536	123.83714	716.29803	624.02209	138.20889	1144.56812	706.98859	134.12672	1192.89038	705.47339	106.54412	1130.31213	628.26984	230.21088	681.84888	987.40668	209.79471	717.83032	1014.64056	239.39774	697.61774	1064.54663	199.12794	1153.11426	992.91937	205.78859	1137.84485	1053.10242	179.20428	1108.29871	984.35101									 
1641	8.200	348.76297	967.10492	830.15491	351.39536	909.10938	831.26361	343.32599	937.76862	847.40588	197.40285	-192.79210	605.61597	117.34220	2026.79028	622.84113	271.63864	1358.13892	28.44713	119.47500	1486.26660	44.12000	190.14104	1527.07410	30.20787	151.28830	1511.90686	41.97904	305.85318	492.66629	38.25203	145.89839	381.35870	49.76974	213.00031	336.18195	30.71045	173.11702	352.94986	46.08841	245.01131	503.12808	64.35275	292.40994	438.88785	73.88303	312.04770	512.38831	199.43733	298.86029	524.19305	262.66757	336.03049	554.37427	244.35028	331.02145	567.26831	287.19565	221.13237	1357.89063	57.31805	268.41168	1411.80627	70.41223	278.04895	1319.08813	304.47519	285.12375	1338.68127	241.90520	317.10873	1296.41101	280.83514	284.52335	1109.27283	723.62073	285.53867	1168.13501	582.10950	243.02698	1189.63574	599.25439	274.49252	1155.57922	646.06006	298.25098	766.59271	720.41870	257.85797	673.16229	603.24268	299.33105	702.60779	593.91760	277.57846	706.75623	656.08936	206.55405	840.35248	1486.57996	319.10086	851.05981	1481.53381	330.43597	975.15100	1470.41125	348.12338	919.27924	1266.41882	338.58514	932.03156	892.08392	210.19644	925.71649	1231.00012	304.87817	745.90411	1225.47156	268.28915	1085.08313	1231.86316	151.55527	659.98853	707.14197	150.19681	701.07220	707.59509	123.94675	716.35583	624.05249	138.28352	1144.62659	706.97736	134.21289	1192.96289	705.45990	106.63207	1130.36243	628.26563	230.25941	681.96527	987.45770	209.81670	717.93561	1014.70117	239.40816	697.72961	1064.61511	199.21005	1153.17883	992.91406	205.87035	1137.91101	1053.09363	179.29555	1108.35791	984.34491									 
1642	8.205	348.83722	967.13525	830.16779	351.46652	909.14221	831.25775	343.39514	937.80719	847.40802	197.54184	-192.74080	605.78308	117.44386	2026.88367	622.74774	271.63635	1358.13904	28.44629	119.48106	1486.26648	44.11884	190.14278	1527.08521	30.22473	151.28531	1511.91809	41.98296	305.85095	492.65787	38.25646	145.89832	381.35861	49.76053	213.00285	336.18417	30.71270	173.12039	352.94485	46.09198	244.99423	503.13800	64.35916	292.41833	438.86072	73.89307	312.05511	512.40558	199.42435	298.91812	524.22406	262.66055	335.98843	554.47083	244.27852	331.03241	567.30707	287.17508	221.13411	1357.89368	57.31416	268.42114	1411.82227	70.40681	278.16644	1319.08167	304.45853	285.16113	1338.70691	241.86919	317.15323	1296.38672	280.82034	284.59665	1109.33044	723.62836	285.58453	1168.15222	582.11249	243.11998	1189.69141	599.24701	274.56876	1155.61731	646.12671	298.36191	766.60864	720.41626	257.92609	673.16876	603.26135	299.37219	702.63666	593.90332	277.56018	706.79517	656.05334	206.52000	840.42877	1486.58521	319.07483	851.22046	1481.57520	330.41290	975.30945	1470.45691	348.14047	919.40704	1266.43970	338.66751	932.05603	892.09631	210.22079	925.83423	1231.01196	304.89917	746.02179	1225.53174	268.35217	1085.21057	1231.86353	151.65884	660.03656	707.18304	150.58356	701.10413	707.56866	124.06030	716.40607	624.09039	138.33591	1144.44800	706.94879	134.33514	1193.02026	705.43121	106.72691	1130.42102	628.25531	230.27963	682.05963	987.51221	209.84535	718.06213	1014.74365	239.40034	697.83276	1064.66785	199.28578	1153.24988	992.92188	205.94945	1138.01611	1053.08167	179.85210	1108.22485	984.10498									 
1643	8.210	348.90305	967.20428	830.16937	351.54547	909.20496	831.26874	343.47247	937.87201	847.41211	197.62572	-192.81740	605.97345	117.59595	2026.89221	622.62061	271.64105	1358.15320	28.43896	119.48839	1486.28186	44.11323	190.12730	1527.18005	30.32038	151.29395	1511.92847	41.97765	305.83728	492.67639	38.24690	145.89653	381.35471	49.76062	213.00584	336.18887	30.72158	173.11082	352.94662	46.09237	244.97806	503.14716	64.35699	292.38977	438.85086	73.90560	312.04477	512.44562	199.39682	298.93698	524.27704	262.65125	336.03149	554.51086	244.24567	331.06085	567.36017	287.15417	221.12677	1357.90308	57.31592	268.42465	1411.84216	70.39606	278.22327	1319.13281	304.47079	285.20441	1338.72339	241.88461	317.17212	1296.43213	280.78998	284.67599	1109.38110	723.62958	285.66144	1168.17224	582.12573	243.21193	1189.73010	599.27386	274.61438	1155.71277	646.10663	298.48254	766.63647	720.41168	258.02136	673.19806	603.27637	299.49020	702.62872	593.92950	277.77872	706.81299	656.05762	206.50261	840.58215	1486.58374	319.05258	851.38104	1481.61890	330.39063	975.47717	1470.50781	348.13168	919.54138	1266.47107	338.74442	932.10559	892.11536	210.20738	925.95294	1231.02832	304.91739	746.15265	1225.59424	268.39087	1085.33691	1231.86499	151.75156	660.07373	707.23279	150.68304	701.14972	707.61432	124.03996	716.57880	624.23505	138.43501	1144.51660	706.93054	134.44310	1193.09338	705.38727	106.84581	1130.46228	628.22070	230.31998	682.17456	987.56732	209.85818	718.18353	1014.80579	239.43707	697.93225	1064.73083	199.35805	1153.41443	992.89728	206.01422	1138.14880	1053.08350	179.54549	1108.49292	984.19849									 
1644	8.215	348.99182	967.28735	830.18622	351.63718	909.28510	831.27710	343.57697	937.95160	847.44312	197.81526	-192.63062	606.12091	117.76707	2026.67908	622.36926	271.65240	1358.17224	28.43680	119.49620	1486.30762	44.12372	190.14056	1527.10486	30.21246	151.30479	1511.92981	41.97146	305.83881	492.68671	38.25576	145.89502	381.35239	49.74879	213.00716	336.19427	30.72917	173.11621	352.95502	46.09516	244.97466	503.15488	64.34624	292.39380	438.87399	73.89142	312.06693	512.45667	199.37750	298.96350	524.30865	262.63547	335.92340	554.63483	244.10338	331.08926	567.41492	287.11221	221.13582	1357.91675	57.31826	268.43842	1411.85254	70.38689	278.30862	1319.18298	304.47345	285.24570	1338.74963	241.87596	317.22272	1296.45935	280.78394	284.70309	1109.49036	723.57080	285.74292	1168.22937	582.13019	243.30492	1189.80469	599.27032	274.71243	1155.76343	646.14374	298.60733	766.66669	720.42877	258.16138	673.23883	603.25262	299.55411	702.72754	593.87476	277.83847	706.87592	656.01813	206.49336	840.73175	1486.59595	319.02969	851.54205	1481.67249	330.36578	975.63971	1470.56177	348.10303	919.66937	1266.50049	338.84448	932.17194	892.14349	210.19942	926.07996	1231.04199	304.89673	746.28241	1225.65833	268.41254	1085.47717	1231.88269	151.85567	660.13483	707.28314	150.79924	701.19818	707.66040	124.32530	716.49121	624.15826	138.58722	1144.84827	706.89197	134.54030	1193.18372	705.36768	106.99074	1130.51440	628.18384	230.35144	682.26007	987.65308	210.16829	718.49359	1014.78381	239.39622	698.05591	1064.80237	199.44470	1153.53528	992.92426	206.06096	1138.30078	1053.09570	179.95322	1108.54285	984.09625									 
